<?xml version="1.0" encoding="utf-8"?>
<!-- Generator: Adobe Illustrator 25.0.0, SVG Export Plug-In . SVG Version: 6.00 Build 0)  -->
<svg version="1.1" id="Layer_1" xmlns="http://www.w3.org/2000/svg" xmlns:xlink="http://www.w3.org/1999/xlink" x="0px" y="0px"
	 viewBox="0 0 24 24" style="enable-background:new 0 0 24 24;" xml:space="preserve">
<style type="text/css">
	.st0{fill:#1FB4BF;}
</style>
<g>
	<path class="st0" d="M22.2,9.9v6.3c0,1.4-1.1,2.5-2.5,2.5h-0.9v4.3c0,0.1-0.1,0.1-0.1,0l-3.7-4.4h-6c-0.2,0-0.3,0-0.5-0.1l1.9-2.2
		h6c1.4,0,2.5-1.1,2.5-2.5V7.6c0-0.1,0-0.2,0-0.2h0.9C21.1,7.4,22.2,8.5,22.2,9.9z"/>
	<path class="st0" d="M14.1,2.9H3.3C1.9,2.9,0.8,4,0.8,5.4v6.3c0,1.4,1.1,2.5,2.5,2.5h0.9v4.3c0,0.1,0.1,0.1,0.1,0l3.7-4.4h6
		c1.4,0,2.5-1.1,2.5-2.5V5.4C16.6,4,15.4,2.9,14.1,2.9z"/>
</g>
</svg>
