<?xml version="1.0" encoding="utf-8"?>
<!-- Generator: Adobe Illustrator 25.0.0, SVG Export Plug-In . SVG Version: 6.00 Build 0)  -->
<svg version="1.1" id="Layer_1" xmlns="http://www.w3.org/2000/svg" xmlns:xlink="http://www.w3.org/1999/xlink" x="0px" y="0px"
	 viewBox="0 0 24 24" style="enable-background:new 0 0 24 24;" xml:space="preserve">
<style type="text/css">
	.st0{fill:#1FB4BF;}
</style>
<g>
	<path class="st0" d="M20.3,19.8l-1.5-1.8c0-2.5,0-7,0-7c0-3.5-2.7-6.5-6.1-6.9V2.9c0-0.5-0.4-1-1-1c-0.5,0-1,0.4-1,1v1.2
		c-3.3,0.6-5.8,3.4-5.8,6.9v6.9l-1.7,2c-0.5,0.5,0,1.3,0.7,1.3h15.7C20.3,21.1,20.7,20.3,20.3,19.8z"/>
	<path class="st0" d="M10.5,22.1c0,0.5,0.5,1,1,1h0.6c0.6,0,1.1-0.5,1.1-1v-0.4h-2.7C10.5,21.7,10.5,22.1,10.5,22.1z"/>
</g>
</svg>
