<?xml version="1.0" encoding="utf-8"?>
<!-- Generator: Adobe Illustrator 25.0.0, SVG Export Plug-In . SVG Version: 6.00 Build 0)  -->
<svg version="1.1" id="Layer_1" xmlns="http://www.w3.org/2000/svg" xmlns:xlink="http://www.w3.org/1999/xlink" x="0px" y="0px"
	 viewBox="0 0 24 24" style="enable-background:new 0 0 24 24;" xml:space="preserve">
<style type="text/css">
	.st0{fill:#1FB4BF;}
</style>
<g>
	<g>
		<g>
			<path class="st0" d="M16.6,13.9H16v1.9h-2v1.1H4.1v-0.6c0-2.7,1.9-5,4.5-5.8c0.6,0.4,1.3,0.7,2,0.7c0.8,0,1.5-0.2,2-0.7
				C14.4,11,15.9,12.3,16.6,13.9z"/>
		</g>
		<g>
			<circle class="st0" cx="10.5" cy="7.1" r="3.3"/>
		</g>
		<g>
			<g>
				<rect x="16.5" y="14.5" class="st0" width="1.2" height="5.2"/>
			</g>
			<g>
				
					<rect x="16.5" y="14.5" transform="matrix(-1.836970e-16 1 -1 -1.836970e-16 34.2228 3.036593e-02)" class="st0" width="1.2" height="5.2"/>
			</g>
		</g>
	</g>
	<g>
		<path class="st0" d="M11.9,23c-6.1,0-11-4.9-11-11s4.9-11,11-11s11,4.9,11,11S18,23,11.9,23z M11.9,1.8C6.3,1.8,1.7,6.4,1.7,12
			c0,5.6,4.6,10.2,10.2,10.2c5.6,0,10.2-4.6,10.2-10.2C22.1,6.4,17.5,1.8,11.9,1.8z"/>
	</g>
</g>
</svg>
