<?xml version="1.0" encoding="utf-8"?>
<!-- Generator: Adobe Illustrator 25.0.0, SVG Export Plug-In . SVG Version: 6.00 Build 0)  -->
<svg version="1.1" id="Layer_1" xmlns="http://www.w3.org/2000/svg" xmlns:xlink="http://www.w3.org/1999/xlink" x="0px" y="0px"
	 viewBox="0 0 24 24" style="enable-background:new 0 0 24 24;" xml:space="preserve">
<style type="text/css">
	.st0{fill:#1FB4BF;}
</style>
<polygon class="st0" points="23.2,11.3 20.8,11.3 20.8,8.9 19.7,8.9 19.7,11.3 17.3,11.3 17.3,12.4 19.7,12.4 19.7,14.8 20.8,14.8 
	20.8,12.4 23.2,12.4 "/>
<g>
	<g>
		<g>
			<path class="st0" d="M19.8,15.9c-1.4,2.9-4.4,4.9-7.8,4.9c-4.7,0-8.7-3.9-8.7-8.7c0-4.8,3.9-8.7,8.7-8.7c3,0,5.6,1.5,7.2,3.8V6
				c-1.7-2-4.3-3.3-7.2-3.3c-5.3,0-9.4,4.2-9.4,9.4s4.2,9.4,9.4,9.4c3.8,0,7.1-2.3,8.6-5.6H19.8z"/>
			<path class="st0" d="M19.3,15.9c-1.4,2.6-4.2,4.5-7.3,4.5c-4.6,0-8.3-3.7-8.3-8.3S7.4,3.8,12,3.8c3,0,5.6,1.6,7,3.9h0.2V5.4
				c-1.8-1.9-4.3-3.1-7.2-3.1c-5.4,0-9.8,4.4-9.8,9.8s4.4,9.8,9.8,9.8c4.1,0,7.6-2.5,9-6H19.3z"/>
		</g>
	</g>
	<g>
		<path class="st0" d="M11.6,10.5c1,0,1.9-0.8,1.9-1.9c0-1-0.8-1.9-1.9-1.9c-1,0-1.9,0.8-1.9,1.9C9.7,9.6,10.5,10.5,11.6,10.5z"/>
		<path class="st0" d="M15.1,11.6c-0.5-0.5-1.2-0.9-1.9-1.2c-0.4,0.5-1,0.7-1.6,0.7c-0.6,0-1.2-0.3-1.6-0.7C8,11.1,6.7,13,6.7,15.1
			v0.6h9.8v-0.6C16.5,13.8,15.9,12.5,15.1,11.6z"/>
	</g>
</g>
</svg>
